Coordinates
version=1
nRows=10
nColumns=28
inDegrees=yes

Units are S.I. units (second, meters, Newtons, ...)
Angles are in degrees.

endheader
time	pelvis_tilt	pelvis_list	pelvis_rotation	pelvis_tx	pelvis_ty	pelvis_tz	hip_flexion_r	hip_adduction_r	hip_rotation_r	knee_angle_r	ankle_angle_r	subtalar_angle_r	mtp_angle_r	hip_flexion_l	hip_adduction_l	hip_rotation_l	knee_angle_l	socket_flexion	socket_adduction	socket_rotation	socket_tx	socket_ty	socket_tz	foot_flex	lumbar_extension	lumbar_bending	lumbar_rotation
      0.63333333	     -0.83172631	     -3.39713745	      7.58752632	     -0.03403050	      0.98760857	      0.29195008	     25.32388523	      3.25842876	     -7.67620687	     -6.22430466	     17.00884471	    -17.35435534	    -14.03308859	    -24.15572277	     -5.65428553	     -0.75749722	      0.40997506	     10.38606366	      0.00000000	      0.00000000	      0.00000000	      0.00000000	      0.00000000	      7.93311927	     -9.18436944	      3.93881081	     -5.37790511
      0.63750000	     -0.79762889	     -3.53744860	      7.68553518	     -0.02757218	      0.98667874	      0.29207769	     25.52899926	      3.43814397	     -7.41679757	     -7.07489640	     16.75952584	    -17.36885854	    -14.03059763	    -24.38553857	     -5.88971775	     -0.66788335	      0.13447633	     10.40353043	      0.00000000	      0.00000000	      0.00000000	      0.00000000	      0.00000000	      7.85868244	     -9.16813471	      4.20815756	     -5.40034145
      0.64166667	     -0.99089174	     -3.60386995	      7.39897723	     -0.02091261	      0.98525629	      0.29274900	     26.22916339	      3.62566448	     -7.18636903	     -8.44166936	     16.20124295	    -17.43270895	    -12.56997987	    -24.42797768	     -5.85082497	     -1.09862702	     -0.23092060	     10.39672041	      0.00000000	      0.00000000	      0.00000000	      0.00000000	      0.00000000	      7.80916909	     -8.87954908	      4.29381882	     -5.11827398
      0.64583333	     -0.93142711	     -3.76032440	      7.49662027	     -0.01439735	      0.98442378	      0.29289552	     26.37803398	      3.83289822	     -6.90208382	     -9.27891700	     15.91135633	    -17.42160890	    -12.55450600	    -24.65884411	     -6.10165484	     -0.98912952	     -0.54194558	     10.43712734	      0.00000000	      0.00000000	      0.00000000	      0.00000000	      0.00000000	      7.69102480	     -8.88231731	      4.58222646	     -5.17355559
      0.65000000	     -0.83251160	     -3.90624824	      7.31787551	     -0.00769616	      0.98347555	      0.29339324	     26.67791110	      4.09541096	     -6.84036704	    -10.42996910	     14.12192762	    -18.06714025	     -7.22933126	    -24.97033240	     -6.20909768	     -1.42548859	     -0.95781984	     10.40697308	      0.00000000	      0.00000000	      0.00000000	      0.00000000	      0.00000000	      7.59052105	     -8.91677097	      4.85975838	     -5.22749288
      0.65416667	     -0.75610510	     -4.07020682	      7.26263195	     -0.00106385	      0.98268700	      0.29378228	     26.90205441	      4.35121938	     -6.67930926	    -11.46540937	     13.67672593	    -18.03548040	     -7.23006630	    -25.20466769	     -6.39717973	     -1.59646310	     -1.37913464	     10.41765286	      0.00000000	      0.00000000	      0.00000000	      0.00000000	      0.00000000	      7.44605132	     -8.92754294	      5.14635427	     -5.26016679
      0.65833333	     -0.68059170	     -4.24471300	      7.19631969	      0.00561144	      0.98192077	      0.29422287	     27.13205031	      4.62609420	     -6.49648800	    -12.53402506	     13.27345376	    -18.04783608	     -7.18690643	    -25.42204155	     -6.59097773	     -1.78910371	     -1.83123651	     10.41777087	      0.00000000	      0.00000000	      0.00000000	      0.00000000	      0.00000000	      7.26631189	     -8.93706974	      5.43523511	     -5.26058197
      0.66250000	     -0.61767930	     -4.42089155	      7.19827945	      0.01217240	      0.98127010	      0.29463333	     27.29290468	      4.89262501	     -6.21390869	    -13.43498164	     12.96944817	    -18.01403197	     -7.16272079	    -25.59529015	     -6.83255591	     -1.73602475	     -2.25821840	     10.48485930	      0.00000000	      0.00000000	      0.00000000	      0.00000000	      0.00000000	      7.05684330	     -8.94373602	      5.72954927	     -5.24431435
      0.66666667	     -0.52743652	     -4.60855966	      6.96080790	      0.01898047	      0.98054893	      0.29531144	     27.56959497	      5.22765411	     -6.12164624	    -14.64269470	     12.44202151	    -18.07580048	     -7.02414033	    -25.79336335	     -6.95628213	     -2.23879778	     -2.89319268	     10.41612713	      0.00000000	      0.00000000	      0.00000000	      0.00000000	      0.00000000	      6.85455374	     -8.96206177	      6.02427988	     -5.18194059
      0.67083333	     -0.45980585	     -4.79437983	      6.87784703	      0.02569155	      0.97997991	      0.29586080	     27.74147119	      5.52716797	     -5.89684643	    -15.61626398	     12.07287888	    -18.08595648	     -6.91316128	    -25.93644961	     -7.16206545	     -2.39088320	     -3.44054337	     10.45034052	      0.00000000	      0.00000000	      0.00000000	      0.00000000	      0.00000000	      6.58696616	     -8.95288288	      6.30310034	     -5.10833242
